<svg width="14" height="14" viewBox="0 0 14 14" fill="none" xmlns="http://www.w3.org/2000/svg">
<path d="M7 14C3.14 14 0 10.86 0 7C0 3.14 3.14 0 7 0C10.86 0 14 3.14 14 7C14 10.86 10.86 14 7 14ZM7 1C3.69 1 1 3.69 1 7C1 10.31 3.69 13 7 13C10.31 13 13 10.31 13 7C13 3.69 10.31 1 7 1Z" fill="white"/>
<path d="M7 10.5C6.72 10.5 6.5 10.28 6.5 10V4C6.5 3.72 6.72 3.5 7 3.5C7.28 3.5 7.5 3.72 7.5 4V10C7.5 10.28 7.28 10.5 7 10.5Z" fill="white"/>
<path d="M10 7.5H4C3.72 7.5 3.5 7.28 3.5 7C3.5 6.72 3.72 6.5 4 6.5H10C10.28 6.5 10.5 6.72 10.5 7C10.5 7.28 10.28 7.5 10 7.5Z" fill="white"/>
</svg>
