<svg width="40" height="40" viewBox="0 0 40 40" fill="none" xmlns="http://www.w3.org/2000/svg">
<path d="M35.8 40H4.2C1.9 40 0 38.1 0 35.8V4.2C0 1.9 1.9 0 4.2 0H35.7C38.1 0 40 1.9 40 4.2V35.7C40 38.1 38.1 40 35.8 40Z" fill="#005BFF"/>
<path d="M35.8 0H26.4C26.6 0.1 26.7 0.3 26.9 0.4L30.7 2.8H13C11.4 2.8 10 3.8 9.6 5.4C9.2 7 9.8 8.5 11.2 9.4L22.8 16.5H4.7C3.1 16.5 1.7 17.6 1.3 19.1C0.9 20.6 1.5 22.2 2.9 23L14.4 30H0V35.7C0 38.1 1.9 40 4.2 40H13.8C13.7 39.9 13.5 39.8 13.4 39.7L9.3 37.1H27C28.6 37.1 30 36 30.4 34.5C30.8 33 30.2 31.4 28.8 30.5L17.1 23.4L35.2 23.3C36.8 23.3 38.2 22.2 38.6 20.7C39 19.2 38.4 17.6 37 16.8L25.5 9.8H40V4.2C40 1.9 38.1 0 35.8 0Z" fill="#F81055"/>
</svg>
