<svg width="20" height="25" viewBox="0 0 20 25" fill="none" xmlns="http://www.w3.org/2000/svg">
<path d="M9.6875 0.938066L10.0563 0.0755662C9.93971 0.0257067 9.81426 0 9.6875 0C9.56074 0 9.43529 0.0257067 9.31875 0.0755662L9.6875 0.938066ZM9.6875 23.4381L9.2225 24.2518C9.36412 24.3327 9.5244 24.3753 9.6875 24.3753C9.8506 24.3753 10.0109 24.3327 10.1525 24.2518L9.6875 23.4381ZM9.3175 0.0768164L1.3275 3.50057L2.0625 5.22557L10.055 1.80057L9.3175 0.0768164ZM0 5.51182V14.0868H1.875V5.51182H0ZM4.25125 21.4118L9.2225 24.2518L10.1525 22.6243L5.18125 19.7831L4.25125 21.4118ZM10.1525 24.2518L15.1238 21.4118L14.1937 19.7831L9.2225 22.6243L10.1525 24.2518ZM19.375 14.0856V5.51307H17.5V14.0881L19.375 14.0856ZM18.05 3.50182L10.0563 0.0768164L9.31875 1.79932L17.3113 5.22557L18.05 3.50182ZM19.375 5.51307C19.375 4.63807 18.8538 3.84682 18.05 3.50182L17.3113 5.22557C17.3674 5.24977 17.4152 5.28991 17.4487 5.34101C17.4823 5.39212 17.5001 5.45194 17.5 5.51307H19.375ZM15.1238 21.4118C16.4151 20.6739 17.4884 19.6077 18.235 18.3214C18.9816 17.035 19.3749 15.5741 19.375 14.0868H17.5C17.4998 15.2434 17.1938 16.3794 16.6132 17.3797C16.0326 18.3801 15.1979 19.2092 14.1937 19.7831L15.1238 21.4118ZM0 14.0868C0.000133462 15.5741 0.393413 17.035 1.13999 18.3214C1.88656 19.6077 2.9599 20.6739 4.25125 21.4118L5.18125 19.7831C4.17688 19.2091 3.34209 18.3798 2.76147 17.3792C2.18085 16.3786 1.87503 15.2424 1.875 14.0856L0 14.0868ZM1.325 3.50057C0.931758 3.66928 0.596635 3.94963 0.361124 4.3069C0.125612 4.66416 5.5957e-05 5.08391 0 5.51182H1.875C1.875 5.38682 1.95 5.27307 2.065 5.22307L1.325 3.50057Z" fill="#2563EB"/>
<path d="M13.4375 9.68848L8.4375 14.6885L5.9375 12.1885" stroke="#2563EB" stroke-width="1.5" stroke-linecap="round" stroke-linejoin="round"/>
</svg>
