<svg width="13" height="14" viewBox="0 0 13 14" fill="none" xmlns="http://www.w3.org/2000/svg">
<path d="M11.1181 1.91625C10.52 1.31211 9.80859 0.831885 9.02461 0.503066C8.24064 0.174248 7.39951 0.00329646 6.54937 0H6.5C4.77609 0 3.12279 0.684819 1.90381 1.90381C0.684819 3.12279 0 4.77609 0 6.5V10C0 10.3978 0.158035 10.7794 0.43934 11.0607C0.720644 11.342 1.10218 11.5 1.5 11.5H2.5C2.89782 11.5 3.27936 11.342 3.56066 11.0607C3.84196 10.7794 4 10.3978 4 10V7.5C4 7.10218 3.84196 6.72064 3.56066 6.43934C3.27936 6.15804 2.89782 6 2.5 6H1.0225C1.11893 4.95746 1.51052 3.964 2.15139 3.13607C2.79226 2.30813 3.65585 1.68002 4.64094 1.32535C5.62603 0.970686 6.6918 0.904159 7.71335 1.13357C8.7349 1.36298 9.66989 1.87881 10.4087 2.62063C11.3118 3.52834 11.8672 4.72443 11.9781 6H10.5C10.1022 6 9.72064 6.15804 9.43934 6.43934C9.15804 6.72064 9 7.10218 9 7.5V10C9 10.3978 9.15804 10.7794 9.43934 11.0607C9.72064 11.342 10.1022 11.5 10.5 11.5H12C12 11.8978 11.842 12.2794 11.5607 12.5607C11.2794 12.842 10.8978 13 10.5 13H7C6.86739 13 6.74021 13.0527 6.64645 13.1464C6.55268 13.2402 6.5 13.3674 6.5 13.5C6.5 13.6326 6.55268 13.7598 6.64645 13.8536C6.74021 13.9473 6.86739 14 7 14H10.5C11.163 14 11.7989 13.7366 12.2678 13.2678C12.7366 12.7989 13 12.163 13 11.5V6.5C13.0033 5.64973 12.8388 4.80717 12.5158 4.0206C12.1929 3.23403 11.7179 2.51892 11.1181 1.91625ZM2.5 7C2.63261 7 2.75979 7.05268 2.85355 7.14645C2.94732 7.24021 3 7.36739 3 7.5V10C3 10.1326 2.94732 10.2598 2.85355 10.3536C2.75979 10.4473 2.63261 10.5 2.5 10.5H1.5C1.36739 10.5 1.24021 10.4473 1.14645 10.3536C1.05268 10.2598 1 10.1326 1 10V7H2.5ZM10.5 10.5C10.3674 10.5 10.2402 10.4473 10.1464 10.3536C10.0527 10.2598 10 10.1326 10 10V7.5C10 7.36739 10.0527 7.24021 10.1464 7.14645C10.2402 7.05268 10.3674 7 10.5 7H12V10.5H10.5Z" fill="#2563EB"/>
</svg>
