<svg width="32" height="32" viewBox="0 0 32 32" fill="none" xmlns="http://www.w3.org/2000/svg">
<path d="M29.3784 26.1279H2.62162C1.72602 26.1279 1 26.8551 1 27.752V29.3761C1 30.2731 1.72602 31.0003 2.62162 31.0003H29.3784C30.274 31.0003 31 30.2731 31 29.3761V27.752C31 26.8551 30.274 26.1279 29.3784 26.1279Z" stroke="#2563EB" stroke-width="2" stroke-linecap="round" stroke-linejoin="round"/>
<path d="M5.05405 12.3192V26.1403M26.9459 12.3192V26.1403M20.0541 12.3192V26.1403M11.9459 12.3192V26.1403M14.4432 1.39866L1.84324 8.30112C1.58805 8.44096 1.37512 8.64697 1.22676 8.89757C1.0784 9.14817 1.00008 9.43412 1 9.72546V11.3447C1 11.6031 1.10251 11.851 1.28498 12.0337C1.46745 12.2165 1.71492 12.3192 1.97297 12.3192H30.027C30.2851 12.3192 30.5326 12.2165 30.715 12.0337C30.8975 11.851 31 11.6031 31 11.3447V9.72546C30.9999 9.43412 30.9216 9.14817 30.7732 8.89757C30.6249 8.64697 30.4119 8.44096 30.1568 8.30112L17.5568 1.39866C17.0794 1.13709 16.5441 1 16 1C15.4559 1 14.9206 1.13709 14.4432 1.39866Z" stroke="#2563EB" stroke-width="2" stroke-linecap="round" stroke-linejoin="round"/>
</svg>
