<svg width="11" height="15" viewBox="0 0 11 15" fill="none" xmlns="http://www.w3.org/2000/svg">
<path d="M6.156 0.136913C6.23206 0.0649023 6.32882 0.0185959 6.43261 0.00452974C6.5364 -0.00953641 6.64199 0.00934805 6.73447 0.0585178C6.82696 0.107688 6.90166 0.18466 6.94805 0.27857C6.99444 0.37248 7.01016 0.478587 6.993 0.581913L6.09 5.99991H10.5C10.5929 5.99991 10.6839 6.02577 10.7629 6.07459C10.8419 6.12341 10.9057 6.19325 10.9472 6.27631C10.9887 6.35936 11.0063 6.45234 10.998 6.54482C10.9896 6.6373 10.9557 6.72563 10.9 6.79991L4.9 14.7999C4.83277 14.8894 4.73746 14.9537 4.62934 14.9826C4.52122 15.0115 4.40654 15.0032 4.30365 14.9592C4.20075 14.9152 4.1156 14.838 4.06182 14.7398C4.00804 14.6417 3.98873 14.5283 4.007 14.4179L4.91 8.99991H0.5C0.407144 8.99991 0.316123 8.97406 0.237135 8.92524C0.158147 8.87642 0.094313 8.80657 0.0527866 8.72352C0.0112601 8.64047 -0.0063184 8.54749 0.00202058 8.45501C0.0103596 8.36253 0.0442865 8.2742 0.1 8.19991L6.1 0.199913L6.156 0.136913ZM1.5 7.99991H5.5C5.57258 7.99995 5.64428 8.01578 5.71013 8.04632C5.77597 8.07685 5.83438 8.12136 5.88129 8.17674C5.9282 8.23212 5.96249 8.29705 5.98178 8.36702C6.00108 8.43699 6.0049 8.51032 5.993 8.58191L5.33 12.5589L9.5 6.99991H5.5C5.42742 6.99988 5.35572 6.98405 5.28987 6.95351C5.22403 6.92298 5.16562 6.87847 5.11871 6.82309C5.0718 6.76771 5.03751 6.70278 5.01822 6.63281C4.99892 6.56284 4.9951 6.48951 5.007 6.41791L5.669 2.44091L1.5 7.99991Z" fill="#2563EB"/>
</svg>
