<svg width="19" height="19" viewBox="0 0 19 19" fill="none" xmlns="http://www.w3.org/2000/svg">
<rect width="19" height="19" rx="9.5" fill="#2563EB"/>
<path d="M13.3074 5.66483C12.6107 5.35491 11.8564 5.12997 11.0707 5C11.0568 5.00019 11.0437 5.00558 11.034 5.015C10.9397 5.17995 10.8297 5.3949 10.7564 5.55985C9.92296 5.43996 9.07542 5.43996 8.24201 5.55985C8.16868 5.3899 8.05867 5.17995 7.95915 5.015C7.95391 5.005 7.93819 5 7.92248 5C7.13674 5.12997 6.38768 5.35491 5.68575 5.66483C5.68051 5.66483 5.67527 5.66983 5.67004 5.67483C4.24524 7.7093 3.85237 9.68879 4.04618 11.6483C4.04618 11.6583 4.05142 11.6683 4.0619 11.6733C5.00478 12.3331 5.911 12.733 6.80673 12.9979C6.82245 13.0029 6.83816 12.9979 6.8434 12.9879C7.05293 12.713 7.24151 12.4231 7.40389 12.1182C7.41437 12.0982 7.40389 12.0782 7.38294 12.0732C7.08436 11.9632 6.8015 11.8332 6.52387 11.6833C6.50292 11.6733 6.50292 11.6433 6.51863 11.6283C6.57625 11.5883 6.63387 11.5433 6.69149 11.5033C6.70197 11.4933 6.71768 11.4933 6.72816 11.4983C8.53012 12.2831 10.4735 12.2831 12.2545 11.4983C12.265 11.4933 12.2807 11.4933 12.2912 11.5033C12.3488 11.5483 12.4064 11.5883 12.464 11.6333C12.485 11.6483 12.485 11.6783 12.4588 11.6883C12.1864 11.8432 11.8983 11.9682 11.5997 12.0782C11.5788 12.0832 11.5735 12.1082 11.5788 12.1232C11.7464 12.4281 11.935 12.718 12.1393 12.9929C12.155 12.9979 12.1707 13.0029 12.1864 12.9979C13.0874 12.733 13.9936 12.3331 14.9365 11.6733C14.947 11.6683 14.9522 11.6583 14.9522 11.6483C15.1827 9.38386 14.5698 7.41937 13.3283 5.67483C13.3231 5.66983 13.3179 5.66483 13.3074 5.66483ZM7.67628 10.4536C7.13674 10.4536 6.68626 9.97871 6.68626 9.39386C6.68626 8.80901 7.12627 8.33414 7.67628 8.33414C8.23154 8.33414 8.67155 8.81401 8.66631 9.39386C8.66631 9.97871 8.2263 10.4536 7.67628 10.4536ZM11.3273 10.4536C10.7878 10.4536 10.3373 9.97871 10.3373 9.39386C10.3373 8.80901 10.7773 8.33414 11.3273 8.33414C11.8826 8.33414 12.3226 8.81401 12.3174 9.39386C12.3174 9.97871 11.8826 10.4536 11.3273 10.4536Z" fill="white"/>
</svg>
