<svg width="16" height="20" viewBox="0 0 16 20" fill="none" xmlns="http://www.w3.org/2000/svg">
<path d="M7.75 0.750453L8.045 0.0604529C7.95176 0.0205654 7.85141 0 7.75 0C7.64859 0 7.54824 0.0205654 7.455 0.0604529L7.75 0.750453ZM7.75 18.7505L7.378 19.4015C7.4913 19.4662 7.61952 19.5002 7.75 19.5002C7.88048 19.5002 8.0087 19.4662 8.122 19.4015L7.75 18.7505ZM7.454 0.0614531L1.062 2.80045L1.65 4.18045L8.044 1.44045L7.454 0.0614531ZM0 4.40945V11.2695H1.5V4.40945H0ZM3.401 17.1295L7.378 19.4015L8.122 18.0995L4.145 15.8265L3.401 17.1295ZM8.122 19.4015L12.099 17.1295L11.355 15.8265L7.378 18.0995L8.122 19.4015ZM15.5 11.2685V4.41045H14V11.2705L15.5 11.2685ZM14.44 2.80145L8.045 0.0614531L7.455 1.43945L13.849 4.18045L14.44 2.80145ZM15.5 4.41045C15.5 3.71045 15.083 3.07745 14.44 2.80145L13.849 4.18045C13.8939 4.19982 13.9321 4.23193 13.959 4.27281C13.9858 4.31369 14.0001 4.36155 14 4.41045H15.5ZM12.099 17.1295C13.1321 16.5391 13.9907 15.6862 14.588 14.6571C15.1853 13.628 15.4999 12.4593 15.5 11.2695H14C13.9998 12.1947 13.7551 13.1035 13.2906 13.9038C12.8261 14.7041 12.1583 15.3673 11.355 15.8265L12.099 17.1295ZM0 11.2695C0.00010677 12.4593 0.314731 13.628 0.911991 14.6571C1.50925 15.6862 2.36792 16.5391 3.401 17.1295L4.145 15.8265C3.34151 15.3672 2.67367 14.7038 2.20917 13.9034C1.74468 13.1029 1.50002 12.1939 1.5 11.2685L0 11.2695ZM1.06 2.80045C0.745407 2.93543 0.477308 3.15971 0.288899 3.44552C0.10049 3.73133 4.47656e-05 4.06713 0 4.40945H1.5C1.5 4.30945 1.56 4.21845 1.652 4.17845L1.06 2.80045Z" fill="#2563EB"/>
<path d="M10.75 7.75L6.75 11.75L4.75 9.75" stroke="#2563EB" stroke-width="1.5" stroke-linecap="round" stroke-linejoin="round"/>
</svg>
