<svg width="20" height="20" viewBox="0 0 20 20" fill="none" xmlns="http://www.w3.org/2000/svg">
<path d="M9.6 0C4.298 0 0 4.298 0 9.6C0 14.902 4.298 19.2 9.6 19.2C14.902 19.2 19.2 14.902 19.2 9.6C19.2 4.298 14.902 0 9.6 0ZM13.505 7.864C13.5083 7.946 13.51 8.02733 13.51 8.108C13.51 10.608 11.609 13.489 8.131 13.489C7.10333 13.4904 6.09709 13.1953 5.233 12.639C5.38033 12.6563 5.53067 12.6647 5.684 12.664C6.57 12.664 7.385 12.363 8.032 11.855C7.63772 11.8473 7.25567 11.7167 6.93911 11.4815C6.62255 11.2463 6.38725 10.9183 6.266 10.543C6.54916 10.5968 6.84085 10.5856 7.119 10.51C6.69088 10.4238 6.30581 10.192 6.02926 9.85403C5.7527 9.51604 5.60173 9.09271 5.602 8.656V8.633C5.857 8.774 6.149 8.86 6.459 8.87C6.0578 8.60293 5.77379 8.19267 5.66504 7.72313C5.5563 7.25359 5.63105 6.76025 5.874 6.344C6.34912 6.92781 6.94147 7.40543 7.61274 7.74597C8.28401 8.08652 9.01928 8.28242 9.771 8.321C9.67542 7.91531 9.71656 7.48941 9.88801 7.1095C10.0595 6.7296 10.3516 6.41699 10.7191 6.22026C11.0865 6.02354 11.5087 5.95372 11.9199 6.02167C12.3311 6.08962 12.7084 6.29153 12.993 6.596C13.4162 6.51222 13.822 6.357 14.193 6.137C14.052 6.57513 13.7567 6.94718 13.362 7.184C13.7368 7.13884 14.1029 7.03806 14.448 6.885C14.1951 7.26536 13.8756 7.597 13.505 7.864Z" fill="#2563EB"/>
</svg>
