<svg width="32" height="28" viewBox="0 0 32 28" fill="none" xmlns="http://www.w3.org/2000/svg">
<path d="M31 26.8333C31 23.35 28.2167 18.3867 24.3333 17.2883M21 26.8333C21 22.415 16.5233 16.8333 11 16.8333C5.47667 16.8333 1 22.415 1 26.8333M21 11C22.3261 11 23.5979 10.4732 24.5355 9.53553C25.4732 8.59785 26 7.32608 26 6C26 4.67392 25.4732 3.40215 24.5355 2.46447C23.5979 1.52678 22.3261 1 21 1M16 6C16 7.32608 15.4732 8.59785 14.5355 9.53553C13.5979 10.4732 12.3261 11 11 11C9.67392 11 8.40215 10.4732 7.46447 9.53553C6.52678 8.59785 6 7.32608 6 6C6 4.67392 6.52678 3.40215 7.46447 2.46447C8.40215 1.52678 9.67392 1 11 1C12.3261 1 13.5979 1.52678 14.5355 2.46447C15.4732 3.40215 16 4.67392 16 6Z" stroke="#2563EB" stroke-width="2" stroke-linecap="round" stroke-linejoin="round"/>
</svg>
